<svg width="206" height="34" viewBox="0 0 206 34" fill="none" xmlns="http://www.w3.org/2000/svg">
<path d="M29.7319 10.36C32.5585 10.36 34.7719 11.2133 36.3719 12.92C37.9985 14.6267 38.8119 16.96 38.8119 19.92V33H30.9719V20.96C30.9719 19.76 30.6385 18.8267 29.9719 18.16C29.3052 17.4933 28.3985 17.16 27.2519 17.16C26.1052 17.16 25.1985 17.4933 24.5319 18.16C23.8652 18.8267 23.5319 19.76 23.5319 20.96V33H15.6919V20.96C15.6919 19.76 15.3585 18.8267 14.6919 18.16C14.0519 17.4933 13.1585 17.16 12.0119 17.16C10.8385 17.16 9.91854 17.4933 9.25188 18.16C8.58521 18.8267 8.25188 19.76 8.25188 20.96V33H0.411875V10.56H8.25188V13.52C8.94521 12.56 9.83854 11.8 10.9319 11.24C12.0519 10.6533 13.3319 10.36 14.7719 10.36C16.4252 10.36 17.8919 10.72 19.1719 11.44C20.4785 12.16 21.5052 13.1733 22.2519 14.48C23.0519 13.2533 24.1052 12.2667 25.4119 11.52C26.7185 10.7467 28.1585 10.36 29.7319 10.36ZM50.9472 14.52C51.8272 13.24 52.8939 12.2267 54.1472 11.48C55.4005 10.7333 56.7472 10.36 58.1872 10.36V18.72H55.9872C54.2805 18.72 53.0139 19.0533 52.1872 19.72C51.3605 20.3867 50.9472 21.5467 50.9472 23.2V33H43.1072V10.56H50.9472V14.52Z" fill="#00A3FF"/>
<path d="M68.8378 27H77.5978V33H60.9978V4.8H68.8378V27ZM103.606 10.56V33H95.7263V29.8C95.0596 30.8133 94.1396 31.64 92.9663 32.28C91.7929 32.8933 90.4463 33.2 88.9263 33.2C86.3129 33.2 84.2463 32.3467 82.7263 30.64C81.2329 28.9067 80.4863 26.56 80.4863 23.6V10.56H88.2863V22.6C88.2863 23.88 88.6196 24.8933 89.2863 25.64C89.9796 26.36 90.8863 26.72 92.0063 26.72C93.1529 26.72 94.0596 26.36 94.7263 25.64C95.3929 24.8933 95.7263 23.88 95.7263 22.6V10.56H103.606ZM112.028 8.48C110.641 8.48 109.521 8.10667 108.668 7.36C107.841 6.58667 107.428 5.62667 107.428 4.48C107.428 3.30667 107.841 2.33333 108.668 1.56C109.521 0.786665 110.641 0.399998 112.028 0.399998C113.388 0.399998 114.481 0.786665 115.308 1.56C116.161 2.33333 116.588 3.30667 116.588 4.48C116.588 5.62667 116.161 6.58667 115.308 7.36C114.481 8.10667 113.388 8.48 112.028 8.48ZM115.908 10.56V33H108.068V10.56H115.908ZM129.933 33.28C127.906 33.28 126.093 32.9467 124.493 32.28C122.919 31.5867 121.666 30.6533 120.733 29.48C119.826 28.28 119.319 26.9333 119.213 25.44H126.813C126.919 26.16 127.253 26.72 127.813 27.12C128.373 27.52 129.066 27.72 129.893 27.72C130.533 27.72 131.039 27.5867 131.413 27.32C131.786 27.0533 131.973 26.7067 131.973 26.28C131.973 25.72 131.666 25.3067 131.053 25.04C130.439 24.7733 129.426 24.48 128.013 24.16C126.413 23.84 125.079 23.48 124.013 23.08C122.946 22.68 122.013 22.0267 121.213 21.12C120.439 20.2133 120.053 18.9867 120.053 17.44C120.053 16.1067 120.413 14.9067 121.133 13.84C121.853 12.7467 122.906 11.88 124.293 11.24C125.706 10.6 127.399 10.28 129.373 10.28C132.306 10.28 134.613 11 136.293 12.44C137.973 13.88 138.946 15.7733 139.213 18.12H132.133C131.999 17.4 131.679 16.8533 131.173 16.48C130.693 16.08 130.039 15.88 129.213 15.88C128.573 15.88 128.079 16 127.733 16.24C127.413 16.48 127.253 16.8133 127.253 17.24C127.253 17.7733 127.559 18.1867 128.173 18.48C128.786 18.7467 129.773 19.0267 131.133 19.32C132.759 19.6667 134.106 20.0533 135.173 20.48C136.266 20.9067 137.213 21.6 138.013 22.56C138.839 23.4933 139.253 24.7733 139.253 26.4C139.253 27.7067 138.866 28.88 138.093 29.92C137.346 30.96 136.266 31.7867 134.853 32.4C133.466 32.9867 131.826 33.28 129.933 33.28ZM162.227 4.8V11.04H150.947V16H159.267V21.96H150.947V33H143.107V4.8H162.227ZM186.969 21.52C186.969 22.1333 186.929 22.7467 186.849 23.36H172.009C172.089 24.5867 172.422 25.5067 173.009 26.12C173.622 26.7067 174.396 27 175.329 27C176.636 27 177.569 26.4133 178.129 25.24H186.489C186.142 26.7867 185.462 28.1733 184.449 29.4C183.462 30.6 182.209 31.5467 180.689 32.24C179.169 32.9333 177.489 33.28 175.649 33.28C173.436 33.28 171.462 32.8133 169.729 31.88C168.022 30.9467 166.676 29.6133 165.689 27.88C164.729 26.1467 164.249 24.1067 164.249 21.76C164.249 19.4133 164.729 17.3867 165.689 15.68C166.649 13.9467 167.982 12.6133 169.689 11.68C171.422 10.7467 173.409 10.28 175.649 10.28C177.862 10.28 179.822 10.7333 181.529 11.64C183.236 12.5467 184.569 13.8533 185.529 15.56C186.489 17.24 186.969 19.2267 186.969 21.52ZM178.969 19.56C178.969 18.6 178.649 17.8533 178.009 17.32C177.369 16.76 176.569 16.48 175.609 16.48C174.649 16.48 173.862 16.7467 173.249 17.28C172.636 17.7867 172.236 18.5467 172.049 19.56H178.969ZM198.018 14.52C198.898 13.24 199.964 12.2267 201.218 11.48C202.471 10.7333 203.818 10.36 205.258 10.36V18.72H203.058C201.351 18.72 200.084 19.0533 199.258 19.72C198.431 20.3867 198.018 21.5467 198.018 23.2V33H190.178V10.56H198.018V14.52Z" fill="white"/>
</svg>
