<svg width="156" height="156" viewBox="0 0 156 156" fill="none" xmlns="http://www.w3.org/2000/svg">
<rect x="7" y="7" width="142" height="142" rx="17" fill="url(#paint0_linear)" stroke="#000536" stroke-width="14"/>
<path d="M80.4741 50.04C85.9141 50.04 90.2874 51.72 93.5941 55.08C96.9541 58.3867 98.6341 63.0267 98.6341 69V95H87.4341V70.52C87.4341 67.0533 86.5541 64.4133 84.7941 62.6C83.0341 60.7333 80.6341 59.8 77.5941 59.8C74.5541 59.8 72.1274 60.7333 70.3141 62.6C68.5541 64.4133 67.6741 67.0533 67.6741 70.52V95H56.4741V70.52C56.4741 67.0533 55.5941 64.4133 53.8341 62.6C52.0741 60.7333 49.6741 59.8 46.6341 59.8C43.5407 59.8 41.0874 60.7333 39.2741 62.6C37.5141 64.4133 36.6341 67.0533 36.6341 70.52V95H25.4341V50.68H36.6341V56.04C38.0741 54.1733 39.9141 52.7067 42.1541 51.64C44.4474 50.5733 46.9541 50.04 49.6741 50.04C53.1407 50.04 56.2341 50.7867 58.9541 52.28C61.6741 53.72 63.7807 55.8 65.2741 58.52C66.7141 55.96 68.7941 53.9067 71.5141 52.36C74.2874 50.8133 77.2741 50.04 80.4741 50.04ZM120.462 57.56C121.902 55.2133 123.769 53.3733 126.062 52.04C128.409 50.7067 131.076 50.04 134.062 50.04V61.8H131.102C127.582 61.8 124.916 62.6267 123.102 64.28C121.342 65.9333 120.462 68.8133 120.462 72.92V95H109.262V50.68H120.462V57.56Z" fill="#000536"/>
<rect x="28.1474" y="93.2" width="15.1579" height="3.6" fill="white"/>
<rect x="27.8105" y="87.2" width="15.1579" height="3.6" fill="white"/>
<rect x="8.5" y="8.5" width="139" height="139" rx="14.5" stroke="white"/>
<defs>
<linearGradient id="paint0_linear" x1="17.4133" y1="16.9867" x2="130.053" y2="142" gradientUnits="userSpaceOnUse">
<stop offset="1" stop-color="white"/>
</linearGradient>
</defs>
</svg>
