<svg xmlns="http://www.w3.org/2000/svg" width="24" height="10" fill="none" viewBox="0 0 24 10"><path fill="#0085FF" d="M12.0068 0.943999C13.1375 0.943999 14.0228 1.28533 14.6628 1.968C15.3135 2.65067 15.6388 3.584 15.6388 4.768V10H12.5028V5.184C12.5028 4.704 12.3695 4.33067 12.1028 4.064C11.8361 3.79733 11.4735 3.664 11.0148 3.664C10.5561 3.664 10.1935 3.79733 9.92681 4.064C9.66015 4.33067 9.52681 4.704 9.52681 5.184V10H6.39081V5.184C6.39081 4.704 6.25748 4.33067 5.99081 4.064C5.73481 3.79733 5.37748 3.664 4.91881 3.664C4.44948 3.664 4.08148 3.79733 3.81481 4.064C3.54815 4.33067 3.41481 4.704 3.41481 5.184V10H0.278813V1.024H3.41481V2.208C3.69215 1.824 4.04948 1.52 4.48681 1.296C4.93481 1.06133 5.44681 0.943999 6.02281 0.943999C6.68415 0.943999 7.27081 1.088 7.78281 1.376C8.30548 1.664 8.71615 2.06933 9.01481 2.592C9.33481 2.10133 9.75615 1.70667 10.2788 1.408C10.8015 1.09867 11.3775 0.943999 12.0068 0.943999ZM20.4929 2.608C20.8449 2.096 21.2716 1.69067 21.7729 1.392C22.2743 1.09333 22.8129 0.943999 23.3889 0.943999V4.288H22.5089C21.8263 4.288 21.3196 4.42133 20.9889 4.688C20.6583 4.95467 20.4929 5.41867 20.4929 6.08V10H17.3569V1.024H20.4929V2.608Z"/></svg>