<svg xmlns="http://www.w3.org/2000/svg" width="220" height="199" fill="none" viewBox="0 0 220 199"><g clip-path="url(#clip0_333_1502)"><g filter="url(#filter0_ddd_333_1502)"><path fill="url(#paint0_linear_333_1502)" d="M108.59 61.4599C107.252 66.6731 102.692 70.5555 97.3056 73.2566C82.036 78.5329 69.9793 83.6201 59.9938 88.5499C51.1581 92.9205 51.2526 106.725 60.112 111.033C70.4676 116.065 83.4692 120.893 97.912 126.626C101.794 128.161 107.283 132.508 108.646 137.855C113.053 154.835 118.478 171.534 124.892 187.862C129.782 200.359 141.886 200.343 146.808 187.862C153.187 171.647 158.045 154.141 163.519 137.485C164.184 134.958 165.462 132.633 167.239 130.717C169.017 128.801 171.239 127.353 173.709 126.5C186.279 121.995 198.679 117.033 210.887 111.624C220.809 107.253 221.014 93.0701 211.217 88.4239C198.945 82.5716 186.408 77.2923 173.646 72.603C171.154 71.7131 168.904 70.2548 167.073 68.3438C165.243 66.4329 163.883 64.1218 163.101 61.5938C157.163 43.4025 153.399 27.9675 147.083 11.9498C142.162 -0.539984 129.254 -0.154107 124.325 12.3278C118.04 28.2983 113.654 44.1821 108.59 61.4599Z"/></g><path fill="url(#paint1_linear_333_1502)" d="M108.59 61.4599C107.252 66.6731 102.692 70.5555 97.3056 73.2566C82.036 78.5329 69.9793 83.6201 59.9938 88.5499C51.1581 92.9205 51.2526 106.725 60.112 111.033C70.4676 116.065 83.4692 120.893 97.912 126.626C101.794 128.161 107.283 132.508 108.646 137.855C113.053 154.835 118.478 171.534 124.892 187.862C129.782 200.359 141.886 200.343 146.808 187.862C153.187 171.647 158.045 154.141 163.519 137.485C164.184 134.958 165.462 132.633 167.239 130.717C169.017 128.801 171.239 127.353 173.709 126.5C186.279 121.995 198.679 117.033 210.887 111.624C220.809 107.253 221.014 93.0701 211.217 88.4239C198.945 82.5716 186.408 77.2923 173.646 72.603C171.154 71.7131 168.904 70.2548 167.073 68.3438C165.243 66.4329 163.883 64.1218 163.101 61.5938C157.163 43.4025 153.399 27.9675 147.083 11.9498C142.162 -0.539984 129.254 -0.154107 124.325 12.3278C118.04 28.2983 113.654 44.1821 108.59 61.4599Z"/><g filter="url(#filter1_dd_333_1502)"><path fill="url(#paint2_linear_333_1502)" d="M45.1727 19.801C44.7396 21.4784 43.2749 22.7305 41.5424 23.5968C36.6284 25.2978 32.746 26.9358 29.533 28.5265C26.6901 29.9283 26.7137 34.3698 29.5724 35.7558C32.9035 37.378 37.0851 38.9294 41.7314 40.7722C42.9914 41.2683 44.7475 42.67 45.1964 44.3947C46.543 49.6945 48.3857 55.3015 50.4175 60.4833C51.9925 64.5074 55.8906 64.4995 57.4735 60.4833C59.521 55.27 61.096 49.6315 62.8521 44.2687C63.0666 43.4547 63.4784 42.7062 64.0512 42.0895C64.624 41.4727 65.3401 41.0067 66.136 40.7328C70.1829 39.2857 74.1755 37.6913 78.106 35.9527C78.8234 35.6322 79.4341 35.1131 79.8662 34.4568C80.2982 33.8005 80.5335 33.0343 80.5442 32.2487C80.555 31.463 80.3408 30.6907 79.9269 30.0228C79.513 29.3549 78.9167 28.8193 78.2084 28.4793C74.8379 26.8885 70.6484 25.0379 66.1124 23.392C65.3102 23.1057 64.5857 22.6363 63.9966 22.0212C63.4074 21.4061 62.9697 20.6621 62.7182 19.8483C60.8046 13.9893 59.5919 9.02804 57.5601 3.86204C55.9851 -0.154212 51.8192 -0.0282119 50.2364 3.98804C48.2125 9.13041 46.8029 14.2413 45.1727 19.801Z"/></g><path fill="url(#paint3_linear_333_1502)" d="M45.1727 19.801C44.7396 21.4784 43.2749 22.7305 41.5424 23.5968C36.6284 25.2978 32.746 26.9358 29.533 28.5265C26.6901 29.9283 26.7137 34.3698 29.5724 35.7558C32.9035 37.378 37.0851 38.9294 41.7314 40.7722C42.9914 41.2683 44.7475 42.67 45.1964 44.3947C46.543 49.6945 48.3857 55.3015 50.4175 60.4833C51.9925 64.5074 55.8906 64.4995 57.4735 60.4833C59.521 55.27 61.096 49.6315 62.8521 44.2687C63.0666 43.4547 63.4784 42.7062 64.0512 42.0895C64.624 41.4727 65.3401 41.0067 66.136 40.7328C70.1829 39.2857 74.1755 37.6913 78.106 35.9527C78.8234 35.6322 79.4341 35.1131 79.8662 34.4568C80.2982 33.8005 80.5335 33.0343 80.5442 32.2487C80.555 31.463 80.3408 30.6907 79.9269 30.0228C79.513 29.3549 78.9167 28.8193 78.2084 28.4793C74.8379 26.8885 70.6484 25.0379 66.1124 23.392C65.3102 23.1057 64.5857 22.6363 63.9966 22.0212C63.4074 21.4061 62.9697 20.6621 62.7182 19.8483C60.8046 13.9893 59.5919 9.02804 57.5601 3.86204C55.9851 -0.154212 51.8192 -0.0282119 50.2364 3.98804C48.2125 9.13041 46.8029 14.2413 45.1727 19.801Z"/><g filter="url(#filter2_d_333_1502)"><path fill="url(#paint4_radial_333_1502)" d="M25.1546 132.02C24.5561 134.359 22.5086 136.099 20.091 137.312C13.2398 139.674 7.82177 141.958 3.34089 144.179C-0.62023 146.14 -0.580855 152.329 3.39602 154.259C8.04227 156.527 13.8776 158.692 20.3588 161.268C22.107 161.953 24.564 163.906 25.1783 166.308C27.0683 173.694 29.6355 181.522 32.4705 188.751C34.6676 194.358 40.1014 194.35 42.3064 188.751C45.1729 181.475 47.3464 173.616 49.8034 166.134C50.102 165 50.6757 163.956 51.4737 163.097C52.2718 162.237 53.2696 161.587 54.3788 161.205C60.0232 159.186 65.5919 156.961 71.0738 154.534C72.0716 154.085 72.9205 153.361 73.5208 152.446C74.1211 151.531 74.4479 150.464 74.4628 149.37C74.4777 148.276 74.1801 147.201 73.6048 146.27C73.0296 145.339 72.2007 144.592 71.2155 144.116C65.7082 141.491 60.0821 139.123 54.3551 137.02C53.2359 136.621 52.2254 135.966 51.4037 135.108C50.5821 134.249 49.9721 133.211 49.6223 132.075C46.9526 123.909 45.2674 116.986 42.4324 109.789C40.2274 104.197 34.4235 104.363 32.2185 109.97C29.3993 117.136 27.4226 124.263 25.1546 132.02Z"/></g></g><defs><filter id="filter0_ddd_333_1502" width="167.081" height="196.457" x="52.617" y="2.022" color-interpolation-filters="sRGB" filterUnits="userSpaceOnUse"><feFlood flood-opacity="0" result="BackgroundImageFix"/><feColorMatrix in="SourceAlpha" result="hardAlpha" type="matrix" values="0 0 0 0 0 0 0 0 0 0 0 0 0 0 0 0 0 0 127 0"/><feOffset dx=".25" dy="-.25"/><feGaussianBlur stdDeviation=".25"/><feComposite in2="hardAlpha" operator="out"/><feColorMatrix type="matrix" values="0 0 0 0 0.937255 0 0 0 0 0.482353 0 0 0 0 0.329412 0 0 0 1 0"/><feBlend in2="BackgroundImageFix" mode="normal" result="effect1_dropShadow_333_1502"/><feColorMatrix in="SourceAlpha" result="hardAlpha" type="matrix" values="0 0 0 0 0 0 0 0 0 0 0 0 0 0 0 0 0 0 127 0"/><feOffset dx=".25" dy=".25"/><feGaussianBlur stdDeviation=".5"/><feComposite in2="hardAlpha" operator="out"/><feColorMatrix type="matrix" values="0 0 0 0 0.737255 0 0 0 0 0.615686 0 0 0 0 0.415686 0 0 0 1 0"/><feBlend in2="effect1_dropShadow_333_1502" mode="normal" result="effect2_dropShadow_333_1502"/><feColorMatrix in="SourceAlpha" result="hardAlpha" type="matrix" values="0 0 0 0 0 0 0 0 0 0 0 0 0 0 0 0 0 0 127 0"/><feOffset dx="-.4" dy=".25"/><feGaussianBlur stdDeviation=".2"/><feComposite in2="hardAlpha" operator="out"/><feColorMatrix type="matrix" values="0 0 0 0 1 0 0 0 0 0.901961 0 0 0 0 0.458824 0 0 0 1 0"/><feBlend in2="effect2_dropShadow_333_1502" mode="normal" result="effect3_dropShadow_333_1502"/><feBlend in="SourceGraphic" in2="effect3_dropShadow_333_1502" mode="normal" result="shape"/></filter><filter id="filter1_dd_333_1502" width="53.73" height="62.986" x="27.115" y=".812" color-interpolation-filters="sRGB" filterUnits="userSpaceOnUse"><feFlood flood-opacity="0" result="BackgroundImageFix"/><feColorMatrix in="SourceAlpha" result="hardAlpha" type="matrix" values="0 0 0 0 0 0 0 0 0 0 0 0 0 0 0 0 0 0 127 0"/><feOffset dx=".1" dy=".1"/><feGaussianBlur stdDeviation=".1"/><feComposite in2="hardAlpha" operator="out"/><feColorMatrix type="matrix" values="0 0 0 0 0.803922 0 0 0 0 0.6 0 0 0 0 0.262745 0 0 0 1 0"/><feBlend in2="BackgroundImageFix" mode="normal" result="effect1_dropShadow_333_1502"/><feColorMatrix in="SourceAlpha" result="hardAlpha" type="matrix" values="0 0 0 0 0 0 0 0 0 0 0 0 0 0 0 0 0 0 127 0"/><feOffset dx="-.1" dy=".1"/><feGaussianBlur stdDeviation=".1"/><feComposite in2="hardAlpha" operator="out"/><feColorMatrix type="matrix" values="0 0 0 0 1 0 0 0 0 0.882353 0 0 0 0 0.423529 0 0 0 1 0"/><feBlend in2="effect1_dropShadow_333_1502" mode="normal" result="effect2_dropShadow_333_1502"/><feBlend in="SourceGraphic" in2="effect2_dropShadow_333_1502" mode="normal" result="shape"/></filter><filter id="filter2_d_333_1502" width="74.672" height="87.875" x=".242" y="105.229" color-interpolation-filters="sRGB" filterUnits="userSpaceOnUse"><feFlood flood-opacity="0" result="BackgroundImageFix"/><feColorMatrix in="SourceAlpha" result="hardAlpha" type="matrix" values="0 0 0 0 0 0 0 0 0 0 0 0 0 0 0 0 0 0 127 0"/><feOffset dx=".15" dy="-.15"/><feGaussianBlur stdDeviation=".15"/><feComposite in2="hardAlpha" operator="out"/><feColorMatrix type="matrix" values="0 0 0 0 1 0 0 0 0 0.458824 0 0 0 0 0.462745 0 0 0 1 0"/><feBlend in2="BackgroundImageFix" mode="normal" result="effect1_dropShadow_333_1502"/><feBlend in="SourceGraphic" in2="effect1_dropShadow_333_1502" mode="normal" result="shape"/></filter><linearGradient id="paint0_linear_333_1502" x1="189.766" x2="102.535" y1="62.759" y2="154.582" gradientUnits="userSpaceOnUse"><stop stop-color="#FFCF5A"/><stop offset="1" stop-color="#FEA254"/></linearGradient><linearGradient id="paint1_linear_333_1502" x1="100.188" x2="147.737" y1="204.659" y2="104.363" gradientUnits="userSpaceOnUse"><stop stop-color="#FF886D"/><stop offset="1" stop-color="#FF886D" stop-opacity="0"/></linearGradient><linearGradient id="paint2_linear_333_1502" x1="71.302" x2="43.228" y1="20.218" y2="49.773" gradientUnits="userSpaceOnUse"><stop stop-color="#FFDA72"/><stop offset="1" stop-color="#F7A967"/></linearGradient><linearGradient id="paint3_linear_333_1502" x1="53.977" x2="53.977" y1="68.343" y2="35.858" gradientUnits="userSpaceOnUse"><stop stop-color="#FDA071"/><stop offset="1" stop-color="#FDA071" stop-opacity="0"/></linearGradient><radialGradient id="paint4_radial_333_1502" cx="0" cy="0" r="1" gradientTransform="translate(62.8601 120.215) rotate(127.221) scale(55.7233 54.264)" gradientUnits="userSpaceOnUse"><stop offset=".365" stop-color="#FFBC64"/><stop offset="1" stop-color="#FF8F6B"/></radialGradient><clipPath id="clip0_333_1502"><rect width="220" height="199" fill="#fff"/></clipPath></defs></svg>