<svg xmlns="http://www.w3.org/2000/svg" width="56" height="46" fill="none" viewBox="0 0 56 46"><path fill="#006847" d="M6.22222 0C2.786 0 0 3.16869 0 7.07692V38.9231C0 42.8313 2.786 46 6.22222 46H17.1111V0H6.22222Z"/><path fill="#CE1126" d="M49.7778 0H38.8889V46H49.7778C53.214 46 56 42.8313 56 38.9231V7.07692C56 3.16869 53.214 0 49.7778 0Z"/><path fill="#EEE" d="M17.1111 0H38.8889V46H17.1111V0Z"/><path fill="#A6D388" d="M35.7778 23C35.7778 27.8866 32.2964 31.8462 28 31.8462C23.7051 31.8462 20.2222 27.8866 20.2222 23H18.6667C18.6667 28.8615 22.8449 33.6154 28 33.6154C33.1551 33.6154 37.3333 28.8615 37.3333 23H35.7778Z"/><path fill="#5C913B" d="M21.0669 27.0144C20.9238 26.6959 20.6344 26.519 20.3389 26.5349C20.2315 26.5384 20.1211 26.5703 20.02 26.6287C19.6358 26.8498 19.4849 27.3841 19.6793 27.8194C19.8193 28.1325 19.9733 28.4386 20.1398 28.7323V28.734L20.146 28.7447V28.7464L20.1584 28.7659V28.7677L20.1631 28.7783L20.1646 28.7818L20.1709 28.7907V28.7924L20.1755 28.8013V28.8048L20.1802 28.8137L20.1818 28.8172L20.1864 28.826L20.188 28.8296L20.1926 28.8367L20.1958 28.842L20.1989 28.8473L20.2004 28.8526L20.2051 28.8614L20.2066 28.8632L20.2098 28.8685L20.2144 28.8791L20.216 28.8827L20.2206 28.8915L20.2222 28.895L20.2331 28.9127V28.9145L20.2409 28.9269V28.9287C20.3218 29.0649 20.4042 29.1958 20.4913 29.3285C20.65 29.5727 20.8989 29.693 21.1462 29.6824C21.2955 29.6753 21.4464 29.6187 21.5755 29.5072C21.9209 29.217 21.9924 28.6615 21.7358 28.2705C21.49 27.8707 21.2613 27.4496 21.0669 27.0144V27.0144ZM20.2938 24.2154C20.2611 23.9394 20.2378 23.6581 20.2269 23.3715C20.2191 23.1592 20.2191 22.9504 20.2222 22.7417C20.2346 22.2551 19.8971 21.8464 19.4678 21.8323L19.4118 21.834C19.0073 21.8535 18.6791 22.225 18.6682 22.6921C18.6651 22.8761 18.6635 23.0584 18.6666 23.2424V23.4016L18.6682 23.4104V23.46L18.6698 23.4653L18.6682 23.4688V23.4741L18.6698 23.4777V23.529L18.6713 23.5343V23.5537L18.6729 23.5874L18.6744 23.6033V23.6227C18.6884 23.9058 18.7133 24.1871 18.746 24.4667C18.802 24.9214 19.152 25.2451 19.5471 25.2274C19.572 25.2257 19.5969 25.2239 19.6202 25.2186C20.0573 25.1478 20.3529 24.7002 20.2938 24.2154V24.2154ZM28.5289 31.8231L28.5195 31.8249L28.3266 31.839C27.958 31.855 27.5846 31.8444 27.2222 31.8019C27.1849 31.7966 27.1491 31.7966 27.1118 31.7984C26.7306 31.816 26.4102 32.1522 26.3713 32.5945C26.3293 33.0793 26.6404 33.5127 27.0666 33.5623L27.2611 33.5817L27.2673 33.5835L27.2704 33.5817L27.2751 33.5835H27.2782L27.2875 33.5853H27.2969L27.3015 33.587H27.3031L27.3124 33.5853L27.3171 33.587H27.3249L27.3342 33.5888L27.342 33.5906H27.3622L27.3715 33.5924H27.3918C27.6282 33.61 27.8662 33.6189 28.1058 33.6136H28.1664L28.1773 33.6118L28.1866 33.6136H28.21L28.2178 33.6118H28.2473L28.2566 33.61H28.2582L28.266 33.6118L28.2675 33.61L28.2769 33.6118H28.2784L28.2862 33.61H28.2986L28.308 33.6083H28.3173L28.3189 33.61L28.3282 33.6083H28.3391L28.3469 33.6065H28.378L28.3858 33.6047H28.392L28.3982 33.603L28.4044 33.6047H28.4122L28.4184 33.603H28.4262C28.4915 33.6012 28.5584 33.5941 28.6238 33.5906C29.0422 33.5517 29.3564 33.1394 29.3284 32.66C29.3175 32.1787 28.952 31.8054 28.5289 31.8231V31.8231ZM24.7349 31.0305C24.3444 30.8253 23.9649 30.5794 23.6086 30.3034C23.4655 30.1901 23.2991 30.1424 23.1373 30.1494C22.9009 30.16 22.6706 30.291 22.526 30.5334C22.2849 30.935 22.3735 31.487 22.7282 31.7612L22.7298 31.763L22.7391 31.7683L22.7484 31.7789L22.7578 31.786L22.7671 31.7948C23.1809 32.115 23.6195 32.3964 24.0769 32.637C24.192 32.6989 24.3149 32.7237 24.4346 32.7184C24.7178 32.7042 24.9822 32.5184 25.1082 32.207C25.2933 31.763 25.1238 31.2357 24.7349 31.0305V31.0305ZM32.5593 30.3264C32.4271 30.3334 32.2933 30.3794 32.1735 30.4679C31.8111 30.7297 31.4253 30.9615 31.0318 31.1526C30.6351 31.3401 30.4484 31.8585 30.6164 32.3114C30.7471 32.66 31.0504 32.8634 31.3631 32.851C31.4549 32.8475 31.5435 32.8227 31.6322 32.7838L31.8406 32.6777H31.8438L31.8531 32.6706L31.8562 32.6688L31.8624 32.6653H31.8686L31.8749 32.6617L31.878 32.6582L31.8873 32.6564L31.8904 32.6529L31.8951 32.6494L31.9029 32.6458L31.9075 32.644L31.9153 32.6405L31.9184 32.6387L31.9262 32.6352L31.9293 32.6334C31.934 32.6299 31.934 32.6281 31.9371 32.6281L31.9402 32.6264L31.9495 32.621H31.9526L31.962 32.6157L31.9713 32.6104L31.9744 32.6087L31.9822 32.6034L31.9853 32.6016L31.9946 32.5963L31.9962 32.5945L32.0071 32.5927L32.018 32.5857L32.0211 32.5839L32.0273 32.5786H32.0304L32.0398 32.5715L32.0522 32.568L32.0615 32.5609H32.0631L32.074 32.5538L32.0755 32.552L32.0973 32.5414L32.1082 32.5361L32.13 32.522L32.1424 32.5167L32.1518 32.5114H32.1533L32.1751 32.4972V32.4954L32.1844 32.4919H32.186L32.2202 32.4707L32.2311 32.4671L32.2529 32.453L32.2638 32.4459H32.2653C32.2669 32.4441 32.27 32.4424 32.2762 32.4424C32.2793 32.437 32.2824 32.4353 32.2855 32.4335L32.298 32.4264L32.3073 32.4211V32.4194L32.3291 32.4087H32.3306L32.3415 32.4017L32.3431 32.3999L32.3509 32.3946H32.3524L32.3633 32.3875L32.3726 32.3822H32.3758L32.3851 32.3751V32.3734L32.396 32.368L32.3975 32.3663L32.4069 32.361V32.3592L32.4162 32.3557L32.4193 32.3539L32.4255 32.3486L32.4302 32.3468L32.438 32.3415L32.4411 32.3397L32.4489 32.3344L32.452 32.3327L32.4613 32.3291C32.4598 32.3274 32.4613 32.3274 32.4629 32.3274L32.4722 32.322L32.4753 32.3203L32.4815 32.315L32.4846 32.3132L32.494 32.3079L32.4971 32.3061C32.4971 32.3026 32.5002 32.3026 32.5033 32.3008L32.508 32.299L32.5142 32.2955L32.5189 32.292L32.5251 32.2884L32.5298 32.2849L32.5344 32.2814L32.5391 32.276L32.5469 32.2743L32.5531 32.2725L32.5562 32.269L32.5624 32.2654L32.5686 32.2601L32.5718 32.2584L32.578 32.2548L32.5842 32.2495L32.5889 32.246C32.592 32.2477 32.5935 32.246 32.5966 32.2442L32.5998 32.2407L32.606 32.2371L32.6106 32.2336L32.6153 32.23L32.6215 32.2265L32.6278 32.2212L32.6309 32.2194C32.634 32.2177 32.6402 32.2177 32.6433 32.2141C32.6402 32.2124 32.6402 32.2124 32.6433 32.2124L32.6495 32.2088L32.6604 32.2L32.6635 32.1982L32.6744 32.1929V32.1911L32.6931 32.1805L32.7055 32.1717C32.7149 32.1646 32.7242 32.1575 32.7366 32.1522H32.7382C32.8362 32.085 32.9373 32.016 33.0338 31.9452C33.3946 31.6798 33.502 31.1367 33.2702 30.7244C33.0913 30.4608 32.8269 30.314 32.5593 30.3264V30.3264ZM36.5586 22.156L36.5213 22.1578C36.1075 22.1773 35.7778 22.563 35.7762 23.0389C35.7762 23.529 35.7373 24.0244 35.6642 24.5056C35.5911 24.985 35.8773 25.445 36.2989 25.5264C36.3549 25.537 36.4093 25.5424 36.4638 25.5406C36.8215 25.5229 37.1358 25.2239 37.1995 24.8028V24.794L37.2011 24.7904L37.2026 24.7869L37.2011 24.7834L37.2026 24.7798V24.7763L37.2042 24.7727V24.7674L37.2058 24.7639V24.748C37.2089 24.7462 37.2089 24.7427 37.2089 24.7409V24.7303C37.2415 24.502 37.2695 24.272 37.2898 24.0385L37.2882 24.0367L37.2898 24.0314V24.0297L37.2913 24.0226V24.0031L37.2944 23.9978V23.996L37.2929 23.9907V23.9872L37.2944 23.9819V23.9748L37.2975 23.973L37.2944 23.9677V23.9607C37.2975 23.9589 37.2975 23.9571 37.2975 23.9554V23.9217L37.3006 23.9164V23.9147C37.3209 23.6263 37.3333 23.3344 37.3333 23.0389C37.3333 22.5559 36.988 22.1578 36.5586 22.156V22.156ZM35.8695 26.9259C35.7389 26.8445 35.5973 26.8091 35.4604 26.8162C35.1975 26.8286 34.9486 26.9931 34.8118 27.2727C34.6033 27.7008 34.3622 28.1148 34.0915 28.497C33.824 28.8809 33.8815 29.4364 34.216 29.739C34.3715 29.8787 34.5535 29.9389 34.734 29.93C34.9518 29.9194 35.1633 29.8062 35.3095 29.5974C35.49 29.3391 35.6626 29.0684 35.8229 28.7924C35.826 28.78 35.8338 28.7677 35.84 28.757L35.8415 28.7553L35.8478 28.7447V28.7429L35.854 28.7305C35.8571 28.727 35.8602 28.7234 35.8602 28.7199L35.8618 28.7217L35.868 28.711V28.7093C35.8711 28.7057 35.8726 28.7004 35.8726 28.6969L35.8758 28.6951L35.882 28.6845V28.6827C35.8851 28.681 35.8851 28.6774 35.8866 28.6739L35.8882 28.6721L35.8944 28.6615L35.896 28.658L35.8991 28.6491L35.9038 28.6456L35.9069 28.6367H35.91L35.9131 28.6261L35.9146 28.6226L35.9209 28.6155L35.9224 28.612C35.924 28.6084 35.924 28.6049 35.9271 28.6031L35.9286 28.5978L35.9349 28.5925C35.9349 28.5907 35.9349 28.589 35.938 28.5872V28.5801L35.9426 28.5766L35.9473 28.5677L35.9489 28.5642L35.9535 28.5536L35.9566 28.55L35.9598 28.543L35.9629 28.5377C35.9629 28.5359 35.9629 28.5341 35.966 28.5324C35.966 28.5306 35.966 28.5288 35.9691 28.527L35.9738 28.5182L35.9753 28.5129L35.9784 28.5076L35.9815 28.5023C35.9846 28.5005 35.9846 28.4987 35.9846 28.497C35.9878 28.4952 35.9878 28.4934 35.9878 28.4899L35.9909 28.4846L35.9955 28.4775L36.0002 28.4704V28.4651L36.0033 28.4598L36.008 28.4527L36.0126 28.4474V28.4421L36.0189 28.4333V28.428C36.022 28.4262 36.0235 28.4244 36.0235 28.4209L36.0266 28.4174L36.0298 28.412L36.0344 28.4032L36.0375 28.3979V28.3944L36.0438 28.3855C36.0438 28.3837 36.0438 28.382 36.0469 28.3802L36.0484 28.3749L36.0531 28.3678L36.0562 28.3607L36.0593 28.3554C36.0609 28.3537 36.0593 28.3501 36.0624 28.3484C36.0624 28.3466 36.0624 28.3448 36.0655 28.3448L36.0686 28.336L36.0718 28.3324L36.0749 28.3218L36.078 28.32L36.0811 28.313L36.0842 28.3094L36.0873 28.3006L36.0904 28.297L36.0935 28.2864C36.0966 28.2847 36.0935 28.2829 36.0935 28.2829L36.0998 28.274L36.1013 28.2705L36.1075 28.2617V28.2599L36.1122 28.2493L36.1153 28.2457L36.1184 28.2351V28.2334L36.1262 28.2245L36.1309 28.2139V28.2121L36.1371 28.1997L36.1402 28.198L36.1791 28.1148C36.3798 27.7008 36.246 27.163 35.8695 26.9259V26.9259Z"/><path fill="#55ACEE" d="M28 30.0769C30.5773 30.0769 32.6667 29.2848 32.6667 28.3077C32.6667 27.3306 30.5773 26.5385 28 26.5385C25.4227 26.5385 23.3333 27.3306 23.3333 28.3077C23.3333 29.2848 25.4227 30.0769 28 30.0769Z"/><path fill="#FFCC4D" d="M28.7778 30.0769C30.0665 30.0769 31.1111 29.2848 31.1111 28.3077C31.1111 27.3306 30.0665 26.5385 28.7778 26.5385C27.4891 26.5385 26.4445 27.3306 26.4445 28.3077C26.4445 29.2848 27.4891 30.0769 28.7778 30.0769Z"/><path fill="#5C913B" d="M29.7375 28.7926C29.6115 28.7926 29.484 28.7572 29.3658 28.6846C28.9878 28.4511 28.8478 27.9132 29.0531 27.4851C29.302 26.9649 29.5633 26.4926 29.834 26.0786C29.6178 26.0892 29.3938 26.0945 29.1651 26.0945C28.7358 26.0945 28.3438 25.6964 28.3438 25.2081C28.3438 24.7198 28.6471 24.3235 29.078 24.3235L29.2055 24.3252C29.666 24.3252 30.1389 24.2934 30.562 24.2492C30.8078 24.2191 31.0427 24.3323 31.1998 24.5252C31.2215 24.5057 31.2433 24.4862 31.2667 24.4703C31.4222 24.3536 31.5669 24.2598 31.7022 24.1855C31.794 24.1041 31.906 24.0457 32.0304 24.0192L32.0864 24.0068C32.3789 23.8989 32.5842 23.8847 32.6667 23.8847C32.914 23.8847 33.1458 24.0174 33.292 24.2439C33.4382 24.4703 33.4818 24.7605 33.4087 25.0294C33.2811 25.5 32.9964 25.6062 32.4971 25.7194C32.4038 25.7601 32.2762 25.8309 32.1269 25.9459C31.8344 26.1635 31.4549 26.1299 31.1951 25.8857C31.4082 26.1989 31.4175 26.6483 31.192 26.972C30.9275 27.3559 30.6678 27.8124 30.4204 28.3308C30.2804 28.6262 30.0129 28.7926 29.7375 28.7926V28.7926ZM27.5287 25.9812C27.496 25.9812 27.4602 25.9795 27.426 25.9742C26.8442 25.8857 26.292 25.7548 25.7833 25.5832C25.3711 25.4434 25.1362 24.9516 25.2591 24.4827L25.2684 24.4473L25.2498 24.488C25.0398 24.9144 24.5653 25.0683 24.1904 24.8277C23.6615 24.4916 23.1871 24.0864 22.7795 23.6229C22.4762 23.2779 22.4762 22.717 22.7795 22.372C23.0829 22.027 23.576 22.027 23.8793 22.372C24.1858 22.7206 24.5451 23.0266 24.9495 23.2832C25.2824 23.4955 25.4255 23.9449 25.3058 24.3394C25.4691 23.9626 25.8564 23.7626 26.2235 23.8865C26.6529 24.0316 27.1242 24.143 27.6235 24.2191C28.0498 24.2828 28.35 24.7269 28.294 25.2116C28.2489 25.6575 27.9129 25.9812 27.5287 25.9812V25.9812ZM23.7144 21.843C23.0518 21.843 22.1947 21.5511 21.6751 20.854C20.8787 19.7854 20.4104 18.4142 20.482 17.3633C20.5007 17.082 20.2595 16.8556 20.0231 16.7848C19.8878 16.7441 19.6498 16.7193 19.5378 16.9936C19.446 17.2165 19.2158 17.3102 19.0213 17.2094C18.8269 17.1068 18.7413 16.8432 18.8315 16.622C19.0742 16.0222 19.6187 15.7551 20.2191 15.9285C20.776 16.093 21.3095 16.6627 21.2567 17.4323C21.2007 18.2497 21.6082 19.3944 22.2678 20.2808C22.6147 20.7479 23.2182 20.9372 23.6289 20.9549C23.9633 20.9743 24.1329 20.8876 24.1687 20.8505C24.0815 20.6152 22.9289 19.9252 22.4373 19.6315C22.0189 19.382 21.8944 19.0388 21.8633 18.7964C21.7591 17.9914 22.4855 17.1758 23.1887 16.3902C23.436 16.1125 23.6709 15.8506 23.7984 15.6578C23.9431 15.4402 23.9198 15.2951 23.8918 15.2049C23.7844 14.874 23.3193 14.5467 22.7593 14.4052C22.2413 14.2742 21.8913 13.9894 21.7202 13.5577C21.4947 12.9898 21.6144 12.2467 22.0842 11.2842C22.1884 11.0684 22.4264 10.9941 22.6131 11.1126C22.8013 11.2312 22.8682 11.5001 22.764 11.7142C22.3207 12.62 22.3642 13.0305 22.4295 13.195C22.4949 13.3578 22.6613 13.4728 22.9273 13.54C23.5853 13.7063 24.3771 14.1504 24.6198 14.897C24.7582 15.3234 24.6882 15.7834 24.4207 16.1886C24.2589 16.4345 24.0038 16.7193 23.7347 17.0219C23.3333 17.4712 22.5851 18.3081 22.6333 18.669C22.6427 18.7433 22.7282 18.8088 22.7998 18.8495C23.968 19.5466 24.7442 20.0508 24.9029 20.6682C24.9589 20.8859 24.9355 21.1052 24.8375 21.3034C24.6867 21.6024 24.3724 21.7864 23.9275 21.8324C23.8607 21.8395 23.7875 21.843 23.7144 21.843V21.843Z"/><path fill="#FFCC4D" d="M30.3333 24.7692C30.7629 24.7692 31.1111 23.9771 31.1111 22.9999C31.1111 22.0228 30.7629 21.2307 30.3333 21.2307C29.9038 21.2307 29.5555 22.0228 29.5555 22.9999C29.5555 23.9771 29.9038 24.7692 30.3333 24.7692Z"/><path fill="#FFCC4D" d="M26.8987 21.5633C26.8987 22.0728 26.362 22.485 25.6993 22.485C25.0382 22.485 24.5 22.0728 24.5 21.5633C24.5 21.0537 25.0367 20.6415 25.6993 20.6415C26.3604 20.6415 26.8987 21.0537 26.8987 21.5633ZM25.0522 13.377C25.13 13.7521 24.6991 14.1909 24.0893 14.3554C23.4796 14.52 22.9227 14.3483 22.8433 13.9733C22.7656 13.5964 23.1964 13.1577 23.8047 12.9931C24.416 12.8303 24.9744 13.0002 25.0522 13.377V13.377Z"/><path fill="#C1694F" d="M35.0513 22.9205C35.1913 23.0443 35.4293 21.6307 35.3936 21.1902C35.3936 21.1601 35.3485 20.2242 35.5227 19.5554C35.63 19.3289 35.6362 17.6393 35.4713 17.1952C35.602 17.1829 35.7591 17.1351 35.7778 16.9546C35.1742 17.2076 35.0327 15.5092 34.4525 14.5325C33.8893 13.5542 33.1909 12.9845 32.4613 12.39C32.5158 12.2237 32.6029 12.068 32.7133 11.9123C31.8189 12.4219 30.4251 10.5765 28.3656 10.7145C27.9036 10.7659 27.6842 10.7977 27.566 11.1197C27.1818 11.1551 26.7913 11.2542 26.7913 11.8292C26.7913 11.9672 26.9018 12.2184 27.1476 12.2202C27.4836 12.3316 27.7573 12.2449 27.986 12.7792L28.0467 13.3312C28.0467 13.3312 27.7465 12.8942 27.5816 12.8252L27.6827 12.5899C27.5271 12.4873 27.2518 12.5705 27.2518 12.5705C27.2518 12.5705 26.6529 12.252 26.1722 12.3369L26.0789 11.8946C25.9949 12.1671 25.8067 12.1529 25.7802 12.4095C25.7273 12.2255 25.6573 11.9972 25.6076 11.8132C25.438 12.0751 25.4878 12.3582 25.4271 12.6306C25.3618 12.6943 25.228 12.6961 25.1938 12.5209C25.1767 12.3051 25.1533 12.2856 25.1533 12.0291C25.032 12.2715 24.8858 12.39 24.8376 12.8058L24.7085 12.3458C24.7131 12.8889 24.3025 13.2127 23.9136 13.5966C23.8031 13.8266 23.9307 13.8284 23.94 13.9469L24.1453 14.0637L24.514 14.0336C24.5747 14.1203 24.5249 14.1274 24.6851 14.1822C25.1145 14.3185 25.6496 13.7329 26.0696 14.6546C25.8767 14.8386 25.6822 15.2685 25.7445 15.3499C25.8222 15.3499 25.5889 15.4738 25.9031 15.3605C25.5765 15.7215 25.3556 16.1974 25.3556 16.2257C25.3182 16.3283 25.4862 16.2115 25.452 16.3973L25.5298 16.3867C24.7847 17.3032 25.5049 18.2886 25.4256 18.8176C25.55 19.0459 25.5656 18.8123 25.7211 18.7893C25.8518 19.4404 26.2282 19.8349 26.4585 20.3498L25.9731 20.3551C25.984 20.5992 26.1785 20.831 26.3325 21.0451L26.0073 21.1619C25.7756 21.2963 25.6231 21.4396 25.4598 21.6466C25.3525 21.9439 25.9778 22.0146 26.2796 22.0677L26.2687 22.4269C26.74 22.4782 27.2845 22.3189 27.2845 22.2889L27.4027 22.1845L27.6687 22.3508C27.7573 22.3508 27.8958 21.9474 27.832 21.6378C28.0031 21.8695 28.1649 22.2429 28.336 22.4764L28.4962 22.4516C28.6425 22.7152 28.8431 22.9771 28.9893 23.2407L29.1527 23.3115C29.2476 23.2743 29.3285 23.2619 29.3798 23.0496L29.4545 23.1982L29.7127 22.9965L29.8931 22.9559L30.0285 23.2071C30.1078 23.1735 30.1856 22.9771 30.1902 22.7683C30.2711 22.9505 30.2929 22.9364 30.352 22.9842L30.4718 22.6976L31.1173 23.384L31.6058 23.4159C31.78 23.5503 32.2576 23.6352 32.3385 23.4176C32.7305 23.6087 33.1925 23.3929 33.1691 23.1805C33.53 23.3433 34.0853 23.2336 34.0853 23.2071C34.1522 23.1982 34.3233 23.0072 34.1616 22.8639C32.9685 21.9191 31.1998 20.3551 30.5169 19.9782C30.5169 19.6987 30.3318 18.692 30.1327 18.416L30.2945 18.1082C30.7596 18.6018 30.9276 18.554 31.1749 18.6319C31.4393 18.8707 31.5311 19.2334 31.7956 19.5642L32.032 19.6138C31.8687 19.1414 31.6649 18.6832 31.1702 18.0692C31.4253 18.2143 31.8485 18.6018 32.1316 18.8831C32.3182 19.2387 32.3727 19.5218 32.5438 19.9676C32.6682 20.0579 32.7958 20.3887 32.7787 20.1145C32.7491 19.5996 32.4302 18.784 32.4302 18.7256C32.9373 19.1821 32.9311 19.8933 33.0851 20.3268C33.2142 20.5462 33.2796 20.8399 33.3356 20.7709L33.1862 19.4333L33.0991 18.9432C33.474 19.1892 33.6078 20.1269 33.7836 21.2521C33.7836 21.4308 33.8473 21.6272 33.838 21.7422C33.9189 21.8554 34.0107 22.1685 34.0091 21.9828C34.0091 21.9828 34.0091 20.1534 33.8987 19.7341C33.8707 19.5094 33.9453 19.1449 33.9453 19.1449C34.0822 19.9039 34.2285 20.7266 34.3669 21.4839V22.0412L34.5722 22.2765C34.6111 21.8165 34.6578 21.36 34.6982 20.9036L34.5442 19.267V18.7999C34.5411 18.6354 34.6765 18.6655 34.762 18.853C34.7822 19.2546 34.7822 19.5678 34.7962 19.9676C34.8569 20.4241 34.8989 20.7585 34.9285 21.3405C34.9456 21.8112 34.9642 22.9399 35.0513 22.9205V22.9205Z"/></svg>