<svg xmlns="http://www.w3.org/2000/svg" width="56" height="46" fill="none" viewBox="0 0 56 46"><path fill="#BF0A30" d="M55.5209 41.6442H0.479111C1.41711 44.2007 3.63378 46 6.22222 46H49.7778C52.3662 46 54.5829 44.2007 55.5209 41.6442ZM0 33.281H56V37.812H0V33.281ZM17.8889 8.18977H56V12.7208H17.8889V8.18977ZM55.5209 4.35585C54.5829 1.79931 52.3662 0 49.7778 0H17.8889V4.35585H55.5209ZM17.8889 16.5529H56V21.0839H17.8889V16.5529ZM0 24.9161H56V29.4471H0V24.9161Z"/><path fill="#EEE" d="M17.8889 12.7191H56V16.553H17.8889V12.7191ZM0 21.084V24.9162H56V21.084H18.6667H0ZM17.8889 4.35596V8.18988H56V7.07703C56 6.1128 55.8273 5.19457 55.5209 4.35596H17.8889V4.35596ZM0 29.4472H56V33.2811H0V29.4472ZM0 38.9232C0 39.8874 0.172667 40.8056 0.479111 41.6443H55.5193C55.8273 40.8056 56 39.8874 56 38.9232V37.8103H0V38.9232Z"/><path fill="#002868" d="M6.22222 0C2.786 0 0 3.16869 0 7.07692V21.0839H18.6667V0H6.22222Z"/><path fill="#fff" d="M10.5684 9.27963L9.33332 4.9574L8.09821 9.27963H4.10355L7.33599 11.9512L6.10088 16.2734L9.33332 13.6019L12.5658 16.2734L11.3307 11.9512L14.5631 9.27963H10.5684Z"/></svg>