<svg width="50" height="50" viewBox="0 0 50 50" fill="none" xmlns="http://www.w3.org/2000/svg">
<path d="M25 50C38.8071 50 50 38.8071 50 25C50 11.1929 38.8071 0 25 0C11.1929 0 0 11.1929 0 25C0 38.8071 11.1929 50 25 50Z" fill="#88C9F9"/>
<path d="M41.8472 32.9833C40.4347 32.4417 40.6861 32.6389 39.8153 30.7875C38.9445 28.9375 38.4167 28.3417 36.4583 28.125C34.4986 27.9097 34.5722 28.0625 34.0278 27.0833C33.4833 26.1028 31.275 27.3486 29.8611 27.8945C28.4431 28.4389 28.7931 29.625 28.357 29.5139C27.9195 29.4056 26.8195 29.1236 25.7278 28.2542C24.6389 27.382 26.5375 26.7014 27.0833 26.1583C27.6292 25.6125 26.0556 25.9097 25.5097 25.5806C24.9639 25.2556 23.9875 26.2347 23.1167 25.3611C22.2445 24.4903 22.7903 23.1833 22.682 22.0945C22.5722 21.0042 24.0958 20.7875 25.0764 20.5695C26.0556 20.3528 26.8167 20.5708 26.8167 21.8764C26.8167 23.1833 28.0153 23.6195 27.6889 22.0931C27.3625 20.5667 28.0153 20.1333 28.4528 19.3708C28.8875 18.6083 29.65 17.5181 30.6292 15.8847C31.6097 14.2514 32.2639 15.0125 33.4611 15.1292C34.6597 15.2472 34.9861 15.0139 35.857 15.1236C36.725 15.2333 35.857 14.0347 36.1847 12.8375C36.5097 11.6403 37.7083 11.857 38.9083 12.1847C40.1056 12.5111 37.7083 10.6583 37.2736 9.67918C36.8361 8.69862 35.6389 9.67918 34.8792 8.04585C34.1111 6.41251 33.0403 5.35557 32.0597 5.20973C31.0792 5.06251 32.3722 7.28473 31.6097 8.48196C30.8445 9.67918 29.6722 9.49168 28.4708 9.49168C27.275 9.49168 26.1639 8.48196 27.0361 6.95696C27.9056 5.43334 29.5681 5.59029 30.4389 4.28334C31.3111 2.97779 27.3417 3.09723 25.925 2.66251C24.5083 2.2264 22.8083 2.23057 21.3931 3.31946C19.9764 4.40696 16.9472 4.74723 15.7486 5.18196C14.5514 5.61668 14.3361 4.45973 14.1195 3.58751C14.0222 3.20001 13.5806 3.07779 12.9583 3.09168C9.87501 4.79168 7.20418 7.13612 5.0889 9.9264C5.41806 11.0472 7.01251 9.6639 7.32501 9.3514C7.6514 9.02501 9.28473 9.46112 9.5014 10.6583C9.71945 11.8556 9.61112 13.1653 9.1764 14.2542C8.74029 15.3417 10.2653 16.8667 11.1361 18.3917C12.0083 19.9181 12.9875 19.9167 13.4236 19.9167C13.8583 19.9167 16.3639 20.8972 16.2542 22.0945C16.1458 23.2931 18.5417 24.3806 19.5222 25.1431C20.5028 25.9083 21.1222 26.6597 22.3945 26.8792C23.6681 27.0986 25.157 29.1806 25.8097 29.4C26.3111 29.5667 27.1597 30.3681 27.6722 30.6167C26.9986 31.4695 25.6945 33.2208 25.6945 34.0278C25.6945 35.1195 27.1181 36.8347 27.6625 37.2695C28.2056 37.7028 29.7695 38.0333 30.0931 39.1208C30.4208 40.2097 29.8653 43.875 28.8875 44.8542C27.9042 45.8333 27.5472 48.1486 27.5472 48.1486C27.5472 48.1486 27.8931 48.9 29.0514 48.1486C30.332 47.3195 32.4764 44.9583 33.3333 44.4445C34.9667 43.4625 36.5542 42.2708 38.0792 40.857C39.6042 39.4417 39.0514 38.45 39.8153 37.0375C40.5778 35.6222 41.5639 35.6861 42.8695 34.4917C44.1778 33.2917 43.2639 33.5292 41.8472 32.9833Z" fill="#5C913B"/>
</svg>
