<svg width="148" height="71" viewBox="0 0 148 71" fill="none" xmlns="http://www.w3.org/2000/svg">
<path d="M77.1665 14.4081C83.9665 14.4081 89.4332 16.5081 93.5665 20.7081C97.7665 24.8414 99.8665 30.6414 99.8665 38.1081V70.6081H85.8665V40.0081C85.8665 35.6748 84.7665 32.3748 82.5665 30.1081C80.3665 27.7748 77.3665 26.6081 73.5665 26.6081C69.7665 26.6081 66.7332 27.7748 64.4665 30.1081C62.2665 32.3748 61.1665 35.6748 61.1665 40.0081V70.6081H47.1665V40.0081C47.1665 35.6748 46.0665 32.3748 43.8665 30.1081C41.6665 27.7748 38.6665 26.6081 34.8665 26.6081C30.9998 26.6081 27.9332 27.7748 25.6665 30.1081C23.4665 32.3748 22.3665 35.6748 22.3665 40.0081V70.6081H8.3665V15.2081H22.3665V21.9081C24.1665 19.5748 26.4665 17.7414 29.2665 16.4081C32.1332 15.0748 35.2665 14.4081 38.6665 14.4081C42.9998 14.4081 46.8665 15.3414 50.2665 17.2081C53.6665 19.0081 56.2998 21.6081 58.1665 25.0081C59.9665 21.8081 62.5665 19.2414 65.9665 17.3081C69.4332 15.3748 73.1665 14.4081 77.1665 14.4081ZM127.152 23.8081C128.952 20.8748 131.285 18.5748 134.152 16.9081C137.085 15.2414 140.418 14.4081 144.152 14.4081V29.1081H140.452C136.052 29.1081 132.718 30.1414 130.452 32.2081C128.252 34.2748 127.152 37.8748 127.152 43.0081V70.6081H113.152V15.2081H127.152V23.8081Z" fill="#2F3292"/>
<path d="M76.3443 14.0447C83.1443 14.0447 88.6109 16.1447 92.7443 20.3447C96.9443 24.4781 99.0443 30.2781 99.0443 37.7447V70.2448H85.0443V39.6447C85.0443 35.3114 83.9443 32.0114 81.7443 29.7447C79.5443 27.4114 76.5443 26.2447 72.7443 26.2447C68.9443 26.2447 65.9109 27.4114 63.6443 29.7447C61.4443 32.0114 60.3443 35.3114 60.3443 39.6447V70.2448H46.3443V39.6447C46.3443 35.3114 45.2443 32.0114 43.0443 29.7447C40.8443 27.4114 37.8443 26.2447 34.0443 26.2447C30.1776 26.2447 27.1109 27.4114 24.8443 29.7447C22.6443 32.0114 21.5443 35.3114 21.5443 39.6447V70.2448H7.54425V14.8447H21.5443V21.5447C23.3443 19.2114 25.6443 17.3781 28.4443 16.0447C31.3109 14.7114 34.4443 14.0447 37.8443 14.0447C42.1776 14.0447 46.0443 14.9781 49.4443 16.8447C52.8443 18.6447 55.4776 21.2447 57.3443 24.6447C59.1443 21.4447 61.7443 18.8781 65.1443 16.9447C68.6109 15.0114 72.3443 14.0447 76.3443 14.0447ZM126.329 23.4447C128.129 20.5114 130.463 18.2114 133.329 16.5448C136.263 14.8781 139.596 14.0447 143.329 14.0447V28.7447H139.629C135.229 28.7447 131.896 29.7781 129.629 31.8448C127.429 33.9114 126.329 37.5114 126.329 42.6447V70.2448H112.329V14.8447H126.329V23.4447Z" fill="#0466C8"/>
<rect x="12.7706" y="48.7146" width="9.82132" height="0.96213" fill="#2F3292"/>
<rect x="115.894" y="42.4607" width="9.82132" height="0.96213" fill="#2F3292"/>
<rect x="115.894" y="45.3471" width="9.82132" height="0.96213" fill="#2F3292"/>
<rect x="12.7706" y="42.9418" width="9.82132" height="0.96213" fill="#2F3292"/>
</svg>
