<svg xmlns="http://www.w3.org/2000/svg" viewBox="0 0 1430 290"><path fill="#2f3292" fill-opacity="1" d="M0,192L34.3,192C68.6,192,137,192,206,165.3C274.3,139,343,85,411,64C480,43,549,53,617,74.7C685.7,96,754,128,823,165.3C891.4,203,960,245,1029,245.3C1097.1,245,1166,203,1234,192C1302.9,181,1371,203,1406,213.3L1440,224L1440,320L1405.7,320C1371.4,320,1303,320,1234,320C1165.7,320,1097,320,1029,320C960,320,891,320,823,320C754.3,320,686,320,617,320C548.6,320,480,320,411,320C342.9,320,274,320,206,320C137.1,320,69,320,34,320L0,320Z"/></svg>