<svg xmlns="http://www.w3.org/2000/svg" viewBox="0 0 1440 320"><path fill="#c5d5ea" fill-opacity="1" d="M0,160L30,154.7C60,149,120,139,180,165.3C240,192,300,256,360,250.7C420,245,480,171,540,128C600,85,660,75,720,101.3C780,128,840,192,900,229.3C960,267,1020,277,1080,266.7C1140,256,1200,224,1260,218.7C1320,213,1380,235,1410,245.3L1440,256L1440,0L1410,0C1380,0,1320,0,1260,0C1200,0,1140,0,1080,0C1020,0,960,0,900,0C840,0,780,0,720,0C660,0,600,0,540,0C480,0,420,0,360,0C300,0,240,0,180,0C120,0,60,0,30,0L0,0Z"/></svg>